<svg width="25" height="22" viewBox="0 0 25 22" fill="none" xmlns="http://www.w3.org/2000/svg">
<path d="M1.20612 11.8635L23.9946 11.8635C24.5499 11.8635 25 11.4131 25 10.8581C25 10.3032 24.5499 9.85276 23.9946 9.85276L1.20612 9.85276C0.65084 9.85276 0.200736 10.3028 0.200736 10.8581C0.200736 11.4135 0.650791 11.8635 1.20612 11.8635Z" fill="black"/>
<path d="M0.294642 11.5693L10.147 21.422C10.5398 21.8144 11.1758 21.8144 11.5686 21.422C11.9614 21.0292 11.9614 20.3925 11.5686 20L2.42704 10.8582L11.5686 1.71624C11.9614 1.32381 11.9614 0.687079 11.5686 0.294642C11.3722 0.0982523 11.1151 5.66564e-05 10.8578 5.66789e-05C10.6004 5.67014e-05 10.3434 0.0982524 10.147 0.294642L0.294642 10.1473C-0.0981369 10.5401 -0.0981369 11.1769 0.294642 11.5693Z" fill="black"/>
</svg>
